/* XPM */
static char *_3cf6183c72844c4d576e587fc3df5afLNdfPUCjGZ3V1586[] = {
/* columns rows colors chars-per-pixel */
"100 100 2 1 ",
"  c None",
". c #F7AB79",
/* pixels */
"                                                                                                    ",
"                                                                                                    ",
"                                                                                                    ",
"                                                                                                    ",
"                                                                                                    ",
"                                                                                                    ",
"                                                                                                    ",
"                                                                                                    ",
"                                                                                                    ",
"                                                                                                    ",
"                                                                                                    ",
"                                                                                                    ",
"                                                                                                    ",
"                                                                                                    ",
"                                                                                                    ",
"                                                                                                    ",
"                                                                                                    ",
"                                                                                                    ",
"                                                                                                    ",
"                                                                                                    ",
"                                                                                                    ",
"                                                                                                    ",
"                                                                                                    ",
"                                                                                                    ",
"                                                                                                    ",
"                                                                                                    ",
"                                                                                                    ",
"                                                                                                    ",
"                                                                                                    ",
"                                                                                                    ",
"                                                                                                    ",
"                                                                                                    ",
"                                                                                                    ",
"                                                                                                    ",
"                                                                                                    ",
"                                                                                                    ",
"                                                                                                    ",
"                                                                                                    ",
"                                                                                                    ",
"                                                                                                    ",
"                                                                                                    ",
"                                                                                                    ",
"                                                                                                    ",
"                                                                                                    ",
"                                                                                                    ",
"                                                                                                    ",
"                                                                                                    ",
"                                                                                                    ",
"                                                                                                    ",
"                                                                                                    ",
"                                                                                                    ",
"                                                                                                    ",
"                                                                                                    ",
"                                                                                                    ",
"                                                                                                    ",
"                                                                                                    ",
"          ...                                                                                       ",
"          ....                                                                                      ",
"          ....                                                                                      ",
"          ....  ......                                                                              ",
"          .... .......                                                                              ",
"          ............                                                          .                   ",
"          ............  .                                                      ...                  ",
"          ........... ...                                                      ...  .               ",
"          ...............                                                      ... ..  ..           ",
"          ...............                                                      ... ......           ",
"          ...............                                                      ..........           ",
"          ...............                                                      ............         ",
"          ...............                                                     ..............        ",
"          ...............    ...                                        ...  ...............        ",
"          ...............   ....                                       ....  ...............        ",
"          ......................                                       .....................        ",
"          ......................                                       .....................        ",
"          ......................                                       .....................        ",
"          .....................                                        .....................        ",
"          ................                                              ....................        ",
"          ................                                              ...................         ",
"          ................                                               ..................         ",
"          ...............                                                   ...............         ",
"          ...............                                                   ..............          ",
"           ..............                                                   ..............          ",
"           ..............                                                   ..............          ",
"           ..............                                                   ..............          ",
"           ...............                                                  ..............          ",
"           ...............                                                  .............           ",
"           ...............                                                  .............           ",
"           ...............                                                 ..............           ",
"           ...............                                                 ..............           ",
"            ..............                                                 .............            ",
"            ..............                                                 .............            ",
"            ...............                                               .............             ",
"             ..............                                               .............             ",
"             ..............                                               ............              ",
"             ...............                                              ............              ",
"              ..............                                             .............              ",
"              ..............                                             ............               ",
"              ..............                                            .............               ",
"              ...............                                           .............               ",
"              ...............                                          .............                ",
"               ..............                                          .............                "
};
