/* XPM */
static char *_18747236_1006106947444829_168390373223432444_n1670874029[] = {
/* columns rows colors chars-per-pixel */
"64 64 7 1 ",
"  c None",
". c black",
"X c #382105",
"o c #5E3C10",
"O c #4D4B4D",
"+ c gray50",
"@ c gray63",
/* pixels */
"................................................................",
".@@@@@@@@@@@@+.@@@@@@@@@@@@@@@+.@@@@@@@@@@@@@@+.@@@@@@@@@@@@@@@.",
".@@@@@@@@@@@@+.@@@@@@@@@@@@@@@+.@@@@@@@@@@@@@@+.@@@@@@@@@@@@@@@.",
".@@@@@@@@@@@@+.@@@@@@@@@@@@@@@+.@@@@@@@@@@@@@@+.@@@@@@@@@@@@@@@.",
".@@@@@@@@@@@@+.@@@@@@@@@@@@@@@+.@@@@@@@@@@@@@@+.@@@@@@@@@@@@@@@.",
".@@@@@@@@@@@@+.@@@@@@@@@@@@@@@+.@@@@@@@@@@@@@@+.@@@@@@@@@@@@@@@.",
".@@@@@@@@@@@@+.@@@@@@@@@@@@@@@+.@@@@@@@@@@@@@@+.@@@@@@@@@@@@@@@.",
".@@@@@@@@@@@@+.@@@@@@@@@@@@@@@+.@@@@@@@@@@@@@@+.@@@@@@@@@@@@@@@.",
".@@@@@@@@@@@++.@@@@@@@@@@@@@@++.@@@@@@@@@@@@@++.@@@@@@@@@@@@@@+.",
".++++++++++++O..OOOOOOOOOOOOOOOOOOOOOOOOOOOOOO..O++++++++++++++.",
"................................................................",
"@@@@@+.@@@@@@...ooooooooooooXooooooooooooooXoo...@@@@@@+.@@@@@@@",
"@@@@@+.@@@@@@O.o.oooooXooooooXoooooXooooooXoo.o.O@@@@@@+.@@@@@@@",
"@@@@@+.@@@@@@O.oo.oooXooooooooooooooXooooooo.oo.O@@@@@@+.@@@@@@@",
"@@@@@+.@@@@@@O.ooo..........................ooo.O@@@@@@+.@@@@@@@",
"@@@@@+.@@@@@@O.ooo.OOOOOOOOOOOOOOOOOOOOOOOO.ooX.O@@@@@@+.@@@@@@@",
"@@@@@+.@@@@@@O.ooo.O   +O   +O   +O   +O   .ooo.O@@@@@@+.@@@@@@@",
"@@@@@+.@@@@@@O.ooX.O   +O   +O   +O   +O   .ooo.O@@@@@@+.@@@@@@@",
"@@@@@+.@@@@@@O.ooX.O   +O   +O   +O   +O   .ooo.O@@@@@@+.@@@@@@@",
"@@@@++.@@@@@@O.oXo.O   +O   +O   +O   +O   .ooo.O@@@@@++.@@@@@@@",
"++++++.++++++O.ooo.O   +O   +O   +O   +O   .Xoo.O+++++++.+++++++",
".............O.ooo.O   +O   +O   +O   +O   .oXo.O...............",
".@@@@@@@@@@@@O.ooo.O   +O   +O   +O   +O   .ooo.O@@@@@@@@@@@@@+.",
".@@@@@@@@@@@@O.Xoo.O   +O   +O   +O   +O   .ooo.O@@@@@@@@@@@@@+.",
".@@@@@@@@@@@@O.oXo.O   +O   +O   +O   +O   .ooo.O@@@@@@@@@@@@@+.",
".@@@@@@@@@@@@O.ooo.O   +O   +O   +O   +O   .ooo.O@@@@@@@@@@@@@+.",
".@@@@@@@@@@@@O.ooo.O   +O   +O   +O   +O   .ooo.O@@@@@@@@@@@@@+.",
".@@@@@@@@@@@@O.ooo.O   +O   +O   +O   +O   .ooo.O@@@@@@@@@@@@@+.",
".@@@@@@@@@@@@O.Xoo.O   +O   +O   +O   +O   .Xoo.O@@@@@@@@@@@@@+.",
".@@@@@@@@@@@@O.oXo.O   +O   +O   +O   +O   .ooo.O@@@@@@@@@@@@@+.",
".@@@@@@@@@@@+O.ooX.O   +O   +O   +O   +O   .ooo.O@@@@@@@@@@@@++.",
".++++++++++++O.ooo.O   +O   +O   +O   +O   .ooo.O++++++++++++++.",
".............O.ooo.O   +O   +O   +O   +O   .ooX.O...............",
"@@@@@+.@@@@@@O.ooo.O   +O   +O   +O   +O   .oXo.O@@@@@+.@@@@@@@@",
"@@@@@+.@@@@@@O.ooX.O   +O   +O   +O   +O   .ooo.O@@@@@+.@@@@@@@@",
"@@@@@+.@@@@@@O.Xoo.O   +O   +O   +O   +O   .ooo.O@@@@@+.@@@@@@@@",
"@@@@@+.@@@@@@O.ooo.O   +O   +O   +O   +O   .ooo.O@@@@@+.@@@@@@@@",
"@@@@@+.@@@@@@O.ooo.O   +O   +O   +O   +O   .ooo.O@@@@@+.@@@@@@@@",
"@@@@@+.@@@@@@O.ooo.O   +O   +O   +O   +O   .ooo.O@@@@@+.@@@@@@@@",
"@@@@@+.@@@@@@O.Xoo..........................ooX.O@@@@@+.@@@@@@@@",
"@@@@@+.@@@@@@O.oo.ooooooXooooooXoooooooooXoo.oo.O@@@@@+.@@@@@@@@",
"@@@@++.@@@@@@O.o.oXooooooXooooXooooooXooooXoo.o.O@@@@++.@@@@@@@@",
"++++++.++++++...oooXooooXoooooooooooXooooooooo...++++++.++++++++",
"................................................................",
".@@@@@@@@@@@@O..OOOOOOOOOOOOOOOOOOOOOOOOOOOOOO..O@@@@@@@@@@@@@+.",
".@@@@@@@@@@@@+.@@@@@@@@@@@@@@@+.@@@@@@@@@@@@@@+.@@@@@@@@@@@@@@+.",
".@@@@@@@@@@@@+.@@@@@@@@@@@@@@@+.@@@@@@@@@@@@@@+.@@@@@@@@@@@@@@+.",
".@@@@@@@@@@@@+.@@@@@@@@@@@@@@@+.@@@@@@@@@@@@@@+.@@@@@@@@@@@@@@+.",
".@@@@@@@@@@@@+.@@@@@@@@@@@@@@@+.@@@@@@@@@@@@@@+.@@@@@@@@@@@@@@+.",
".@@@@@@@@@@@@+.@@@@@@@@@@@@@@@+.@@@@@@@@@@@@@@+.@@@@@@@@@@@@@@+.",
".@@@@@@@@@@@@+.@@@@@@@@@@@@@@@+.@@@@@@@@@@@@@@+.@@@@@@@@@@@@@@+.",
".@@@@@@@@@@@@+.@@@@@@@@@@@@@@@+.@@@@@@@@@@@@@@+.@@@@@@@@@@@@@@+.",
".@@@@@@@@@@@++.@@@@@@@@@@@@@@++.@@@@@@@@@@@@@++.@@@@@@@@@@@@@++.",
".+++++++++++++.++++++++++++++++.+++++++++++++++.+++++++++++++++.",
"................................................................",
"@@@@@+.@@@@@@@@@@@@@@+.@@@@@@@@@@@@@@@+.@@@@@@@@@@@@@@+.@@@@@@@@",
"@@@@@+.@@@@@@@@@@@@@@+.@@@@@@@@@@@@@@@+.@@@@@@@@@@@@@@+.@@@@@@@@",
"@@@@@+.@@@@@@@@@@@@@@+.@@@@@@@@@@@@@@@+.@@@@@@@@@@@@@@+.@@@@@@@@",
"@@@@@+.@@@@@@@@@@@@@@+.@@@@@@@@@@@@@@@+.@@@@@@@@@@@@@@+.@@@@@@@@",
"@@@@@+.@@@@@@@@@@@@@@+.@@@@@@@@@@@@@@@+.@@@@@@@@@@@@@@+.@@@@@@@@",
"@@@@@+.@@@@@@@@@@@@@@+.@@@@@@@@@@@@@@@+.@@@@@@@@@@@@@@+.@@@@@@@@",
"@@@@++.@@@@@@@@@@@@@++.@@@@@@@@@@@@@@++.@@@@@@@@@@@@@++.@@@@++++",
"++++++.+++++++++++++++.++++++++++++++++.+++++++++++++++.++++@@@@",
"................................................................"
};
