/* XPM */
static char *_16853930_453932636895261_6094041635922666059_n1670874029[] = {
/* columns rows colors chars-per-pixel */
"64 64 12 1 ",
"  c black",
". c #382508",
"X c #5C3E11",
"o c #4D4B25",
"O c #403F40",
"+ c gray50",
"@ c #ED1C24",
"# c #8A5A11",
"$ c #FF7F27",
"% c #FFF200",
"& c #BDDB7B",
"* c gray63",
/* pixels */
"                                                                ",
" **************+ **************+ *************+ **************+ ",
" **************+ **************+ *************+ **************+ ",
" **************+ **************+ *************+ **************+ ",
" **************+ **************+ *************+ **************+ ",
" **************+ **************+ *************+ **************+ ",
" **************+ **************+ *************+ **************+ ",
" **************+ **************+ *************+ **************+ ",
" **************+ **************+ *************+ **************+ ",
" *************++ *************++ ************++ *************++ ",
" +++++++++++++++ +++++++++++++++ ++++++++++++++ +++++++++++++++ ",
"                                                                ",
"*******+ **************+ *******@&*****+ *************+ ********",
"*******+ **************+ ***&&&&&&&&***+ *************+ ********",
"*******+ **************+ *&&&&@@&&@&***+ *************+ ********",
"*******+ **************+ *&@&&&@@&@&&**+ *************+ ********",
"*******+ **************+ *&&&&&@$$&@&**+ *************+ ********",
"*******+ **************+ **&&@@$@$@&&&*+ *************+ ********",
"*******+ **************+ **&&&@%$%$&&@&+ *************+ ********",
"*******+ **************+ **&&&@$%$$@&&&+ *************+ ********",
"******++ *************++ **&&@$%%%$@&&++ ************++ ********",
"++++++++ +++++++++++++++ +&&&&@%%$@&&&++ ++++++++++++++ ++++++++",
"                          o@oo@$$$@ooo                          ",
" **************+ *********&&&&@@$@@&@&********+ **************+ ",
" **************+ ************&&#@#&&&*********+ **************+ ",
" **************+ ************&&###&&**********+ **************+ ",
" **************+ *************&#X#&***********+ **************+ ",
" **************+ **************XXX************+ **************+ ",
" **************+ **************.X*************+ **************+ ",
" **************+ **************..X************+ **************+ ",
" **************+ ************O     O**********+ **************+ ",
" *************++ *************+.XX***********++ *************++ ",
" +++++++++++++++ ++++++++++++++X.X+++++++++++++ +++++++++++++++ ",
"                               XX.                              ",
"*******+ **************+ ******.X.*****+ *************+ ********",
"*******+ **************+ *******X.*****+ *************+ ********",
"*******+ **************+ *******.X*****+ *************+ ********",
"*******+ **************+ ******X.X*****+ *************+ ********",
"*******+ **************+ ******.XX*****+ *************+ ********",
"*******+ **************+ ******.X******+ *************+ ********",
"*******+ **************+ ******X.******+ *************+ ********",
"******++ *************++ ******X******++ ************++ ********",
"++++++++ +++++++++++++++ +++++++++++++++ ++++++++++++++ ++++++++",
"                                                                ",
" **************+ **************+ *************+ **************+ ",
" **************+ **************+ *************+ **************+ ",
" **************+ **************+ *************+ **************+ ",
" **************+ **************+ *************+ **************+ ",
" **************+ **************+ *************+ **************+ ",
" **************+ **************+ *************+ **************+ ",
" **************+ **************+ *************+ **************+ ",
" *************++ *************++ ************++ *************++ ",
" +++++++++++++++ +++++++++++++++ ++++++++++++++ +++++++++++++++ ",
"                                                                ",
"*******+ **************+ **************+ *************+ ********",
"*******+ **************+ **************+ *************+ ********",
"*******+ **************+ **************+ *************+ ********",
"*******+ **************+ **************+ *************+ ********",
"*******+ **************+ **************+ *************+ ********",
"*******+ **************+ **************+ *************+ ********",
"*******+ **************+ **************+ *************+ ********",
"******++ *************++ *************++ *************+ ********",
"++++++++ +++++++++++++++ +++++++++++++++ ++++++++++++++ ++++++++",
"                                                                "
};
