/* XPM */
static char *_13871187_1473976363091229_6379674318750327655_n1670874029[] = {
/* columns rows colors chars-per-pixel */
"64 64 4 1 ",
"  c black",
". c gray50",
"X c gray63",
"o c white",
/* pixels */
"                                                                ",
" XXXXXXXXXXXX. XXXXXXXXXXXXXXX. XXXXXXXXXXXXXX. XXXXXXXXXXXXXX. ",
" XXXXXXXXXXXX. XXXXXXXXXXXXXXX. XXXXXXXXXXXXXX. XXXXXXXXXXXXXX. ",
" XXXXXXXXXXXX. XXXXXXXXXXXXXXX. XXXXXXXXXXXXXX. XXXXXXXXXXXXXX. ",
" XXXXXXXXXXXX. XXXXXXXXXXXXXXX. XXXXXXXXXXXXXX. XXXXXXXXXXXXXX. ",
" XXXXXXXXXXXX. XXXXXXXXXXXXXXX. XXXXXXXXXXXXXX. XXXXXXXXXXXXXX. ",
" XXXXXXXXXXXX. XXXXXXXXXXXXXXX. XXXXXXXXXXXXXX. XXXXXXXXXXXXXX. ",
" XXXXXXXXXXXX. XXXXXXXXXXXXXXX. XXXXXXXXXXXXXX. XXXXXXXXXXXXXX. ",
" XXXXXXXXXXX.. XXXXXXXXXXXXXX.. XXXXXXXXXXXXX.. XXXXXXXXXXXXX.. ",
" ............. ................ ............... ............... ",
"                                                                ",
"XXXXX. XXXXXXXooXXXXX. XXXXXXXXXXXXXXX. XXXXXXXooXXXXXX. XXXXXXX",
"XXXXX. XXXXXXXoooXXXX. XXXXXXXXXXXXXXX. XXXXXXoooXXXXXX. XXXXXXX",
"XXXXX. XXXXXoXooXoXXX. XXXXXXXXXXXXXXX. XXXXXoXooXoXXXX. XXXXXXX",
"XXXXX. XXXXXXooooXXXX. XXXXXXXXXXXXXXX. XXXXXXooooXXXXX. XXXXXXX",
"XXXXX. XXXXXXXooXXXXX. XXXXXXXXXXXXXXX. XXXXXXXooXXXXXX. XXXXXXX",
"XXXXX. XXXXXX    XXXX. XXXXXXXXXXXXXXX. XXXXXX    XXXXX. XXXXXXX",
"XXXXX. XXXXXXXooXXXXX. XXXXXXXXXXXXXXX. XXXXXXXooXXXXXX. XXXXXXX",
"XXXXX. XXXXXXXooXXXXX. XXXXXXXoooXXXXX. XXXXXXoXoXXXXXX. XXXXXXX",
"XXXX.. XXXXXXXXooXXX.. XXXXXoooooooXX.. XXXXXXooXXXXXX.. XXXXXXX",
"...... ........oo..... .....ooooooo.... .....o.o........ .......",
"               o o         ooooooooo        o o                 ",
" XXXXXXXXXXXX. oXoXXXXXXXXXoo  o  ooXXXXXXXXoXo XXXXXXXXXXXXXX. ",
" XXXXXXXXXXXX. XoXoXXXXXXXXoooooooooXXXXXXooXo. XXXXXXXXXXXXXX. ",
" XXXXXXXXXXXX. XoXooXXXXXXXXoooooooXXXXXXoXXoX. XXXXXXXXXXXXXX. ",
" XXXXXXXXXXXX. XXoXXooXXXXXXXoooooXXXXXooXooXX. XXXXXXXXXXXXXX. ",
" XXXXXXXXXXXX. XXXoooXooXXXXXo o oXXXXoXooXXXX. XXXXXXXXXXXXXX. ",
" XXXXXXXXXXXX. XXXXXXooXoooXXX.oXXXXXoooXXXXXX. XXXXXXXXXXXXXX. ",
" XXXXXXXXXXXX. XXXXXXXXooXXoooooooooXXXXXXXXXX. XXXXXXXXXXXXXX. ",
" XXXXXXXXXXXX. XXXXXXXXXXXoXXXoooXXXoXXXXXXXXX. XXXXXXXXXXXXXX. ",
" XXXXXXXXXXX.. XXXXXXXXXXXooX.oooXXooXXXXXXXX.. XXXXXXXXXXXXX.. ",
" ............. ...........o.oo.o.oo.o.......... ............... ",
"                          o   ooo   o                           ",
"XXXXX. XXXXXXXXXXXXXX. XXXXoooXoXoooXX. XXXXXXXXXXXXXX. XXXXXXXX",
"XXXXX. XXXXXXXXXXXXXX. XXXoXXXoooXXXoX. XXXXXXXXXXXXXX. XXXXXXXX",
"XXXXX. XXXXXXXXXXXXXX. XXXXoooXoXoooXX. XXXXXXXXXXXXXX. XXXXXXXX",
"XXXXX. XXXXXXXXXXXXXX. XXXoXXXoooXXXoX. XXXXXXXXXXXXXX. XXXXXXXX",
"XXXXX. XXXXXXXXXXXXXX. XXXXoXoXoXoXoXX. XXXXXXXXXXXXXX. XXXXXXXX",
"XXXXX. XXXXXXXXXXXXXX. XXXXXXXXoXXXXXX. XXXXXXXXXXXXXX. XXXXXXXX",
"XXXXX. XXXXXXXXXXXXXX. XXXXXoXoooXoXXX. XXXXXXXXXXXXXX. XXXXXXXX",
"XXXXX. XXXXXXXXXXXXXX. XXXXXXo o oXXXX. XXXXXXXXXXXXXX. XXXXXXXX",
"XXXX.. XXXXXXXXXXXXX.. XXXXXoXoooXoXX.. XXXXXXXXXXXXX.. XXXXXXXX",
"...... ............... ....o.o...o.o... ............... ........",
"                           oo     o o                           ",
" XXXXXXXXXXXX. XXXXXXXXXXXoXoX. XXoXoXXXXXXXXX. XXXXXXXXXXXXXX. ",
" XXXXXXXXXXXX. XXXXXXXXXXXooXX. XXXoXoXXXXXXXX. XXXXXXXXXXXXXX. ",
" XXXXXXXXXXXX. XXXXXXXXXXoXoXX. XXXoXoXXXXXXXX. XXXXXXXXXXXXXX. ",
" XXXXXXXXXXXX. XXXXXXXXXXooXXX. XXXXoXoXXXXXXX. XXXXXXXXXXXXXX. ",
" XXXXXXXXXXXX. XXXXXXXXXoXoXXX. XXXXXooXXXXXXX. XXXXXXXXXXXXXX. ",
" XXXXXXXXXXXX. XXXXXXXXXooXXXX. XXXXXoXoXXXXXX. XXXXXXXXXXXXXX. ",
" XXXXXXXXXXXX. XXXXXXXXooXXXXX. XXXXXXooXXXXXX. XXXXXXXXXXXXXX. ",
" XXXXXXXXXXXX. XXXXXXXoooXXXXX. XXXXXXXooXXXXX. XXXXXXXXXXXXXX. ",
" XXXXXXXXXXX.. XXXXXXXooXXXXX.. XXXXXXXoooXXX.. XXXXXXXXXXXXX.. ",
" ............. .......oo....... ........oo..... ............... ",
"                     oo                 ooo                     ",
"XXXXX. XXXXXXXXXXXXXXooXXXXXXXXXXXXXXX. XooXXXXXXXXXXX. XXXXXXXX",
"XXXXX. XXXXXXXXXXXXXoo XXXXXXXXXXXXXXX. XXooXXXXXXXXXX. XXXXXXXX",
"XXXXX. XXXXXXXXXXXXXoo XXXXXXXXXXXXXXX. XXooXXXXXXXXXX. XXXXXXXX",
"XXXXX. XXXXXXXXXXXXoo. XXXXXXXXXXXXXXX. XXXooXXXXXXXXX. XXXXXXXX",
"XXXXX. XXXXXXXXXXX   . XXXXXXXXXXXXXXX. XXX   XXXXXXXX. XXXXXXXX",
"XXXXX. XXXXXXXXXXXooo. XXXXXXXXXXXXXXX. XXXooooXXXXXXX. XXXXXXXX",
"XXXX.. XXXXXXXXXoooo.. XXXXXXXXXXXXXX.. XXXXooooXXXXX.. XXXXXXXX",
"...... ........o.o.... ................ .....oo........ ........",
"                                                                "
};
