/* XPM */
static char *e7e0d6959ce340bc8f892a69251b2b55w7UeB4LFPxX4yXRI[] = {
/* columns rows colors chars-per-pixel */
"100 100 3 1 ",
"  c None",
". c black",
"X c white",
/* pixels */
"                                                                                                    ",
"                                                                                                    ",
"                                                                                                    ",
"                                                                                                    ",
"                                                                                                    ",
"                                                                                                    ",
"                                                                                                    ",
"                                                                                                    ",
"                                                                                                    ",
"                                                                                                    ",
"                                                                                                    ",
"                                                                                                    ",
"                                                                                                    ",
"                                                                                                    ",
"                                                                                                    ",
"                                                                                                    ",
"                                                                                                    ",
"                                                                                                    ",
"                                                                                                    ",
"                                                                                                    ",
"                                            ...........                                             ",
"                                       .....XXXXXXXXXXX.....                                        ",
"                                    ...XXXXXXXXXXXXXXXXXXXXX...                                     ",
"                                  ..XXXXXXXXXXXXXXXXXXXXXXXXXXX..                                   ",
"                                ..XXXXXXXXXXXXXXXXXXXXXXXXXXXXXXX..                                 ",
"                               .XXXXXXXXXXXXXXXXXXXXXXXXXXXXXXXXXXX.                                ",
"                             ..XXXXXXXXXXXXXXXXXXXXXXXXXXXXXXXXXXXXX..                              ",
"                            .XXXXXXXXXXXXXXXXXXXXXXXXXXXXXXXXXXXXXXXXX.                             ",
"                           .XXXXXXXXXXXXXXXXXXXXXXXXXXXXXXXXXXXXXXXXXXX.                            ",
"                          .XXXXXXXXXXXXXXXXXXXXXXXXXXXXXXXXXXXXXXXXXXXXX.                           ",
"                         .XXXXXXXXXXXXXXXXXXXXXXXXXXXXXXXXXXXXXXXXXXXXXXX.                          ",
"                        .XXXXXXXXXXXXXXXXXXXXXXXXXXXXXXXXXXXXXXXXXXXXXXXXX.                         ",
"                       .XXXXXXXXXXXXXXXXXXXXXXXXXXXXXXXXXXXXXXXXXXXXXXXXXXX.                        ",
"                       .XXXXXXXXXXXXXXXXXXXXXXXXXXXXXXXXXXXXXXXXXXXXXXXXXXX.                        ",
"                      .XXXXXXXXXXXXXXXXXXXXXXXXXXXXXXXXXXXXXXXXXXXXXXXXXXXXX.                       ",
"                      .XXXXXXXXXXXXXXXXXXXXXXXXXXXXXXXXXXXXXXXXXXXXXXXXXXXXX.                       ",
"                     .XXXXXXXXXXXXXXXXXXXXXXXXXXXXXXXXXXXXXXXXXXXXXXXXXXXXXXX.                      ",
"                     .XXXXXXXXXXXXXXXXXXXXXXXXXXXXXXXXXXXXXXXXXXXXXXXXXXXXXXX.                      ",
"                    .XXXXXXXXXXXXXXXXXX.....XXXXXXXXXXX.....XXXXXXXXXXXXXXXXXX.                     ",
"                    .XXXXXXXXXXXXXXXXX.......XXXXXXXXX.......XXXXXXXXXXXXXXXXX.                     ",
"                    .XXXXXXXXXXXXXXXX.........XXXXXXX.........XXXXXXXXXXXXXXXX.                     ",
"                   .XXXXXXXXXXXXXXXXX.........XXXXXXX.........XXXXXXXXXXXXXXXXX.                    ",
"                   .XXXXXXXXXXXXXXXXX.........XXXXXXX.........XXXXXXXXXXXXXXXXX.                    ",
"                   .XXXXXXXXXXXXXXXXXX.......XXXXXXXXX.......XXXXXXXXXXXXXXXXXX.                    ",
"                   .XXXXXXXXXXXXXXXXXXX.....XXXXXXXXXXX.....XXXXXXXXXXXXXXXXXXX.                    ",
"                   .XXXXXXXXXXXXXXXXXXXXXXXXXXXXXXXXXXXXXXXXXXXXXXXXXXXXXXXXXXX.                    ",
"                   .XXXXXXXXXXXXXXXXXXXXXXXXXXXXXXXXXXXXXXXXXXXXXXXXXXXXXXXXXXX.                    ",
"                   .XXXXXXXXXXXXXXXXXXXXXXXXXXXXXXXXXXXXXXXXXXXXXXXXXXXXXXXXXXX.                    ",
"                   .XXXXXXXXXXXXXXXXXXXXXXXXXXXXXXXXXXXXXXXXXXXXXXXXXXXXXXXXXXX.                    ",
"                   .XXXXXXXXXXXXXXXXXXXXXXXXXXXXXXXXXXXXXXXXXXXXXXXXXXXXXXXXXXX.                    ",
"                    .XXXXXXXXXXXXXXXXXXXXXXXXXXXXXXXXXXXXXXXXXXXXXXXXXXXXXXXXX.                     ",
"                    .XXXXX..XXXX.XXXXXXXXXXXXXXXXXXXXXXXXXXXXXXXXXXXXXXXXXXXXX.                     ",
"                    .XXXXXX.XXX.XXXXXXXXXXXXXXXXXXXXXXXXXXXXXXXXXXXXXXXXXXXXXX.                     ",
"                     .XXXXXX.XX.XXXXXXXXXXXXXXXXXXXXXXXXXXXXXXXXXX..XXXXXXXXX.                      ",
"                     .XXXXXXX..XXXXXXXXXXXXXXXXXXXXXXXXXXXXXXXXXX..XXXXXXXXXX.                      ",
"                      .XXXXXXX.XXXXXXXXXXXXXXXXXXXXXXXXXXXXX..XX..XXXXXXXXXX.                       ",
"                      .XXXXXXX...XXX..XXXXXXXXXXXXXXXXXXXXXXX...XXXXXXXXXXXX.                       ",
"                       .XXXXXX.XX...X.XXXXXXXX.XXXXXXX.XXXXX....XXXXXXXXXXX.                        ",
"                       .XXXXXXXXXXX...XXXXXXXXX.XXXXXX.XXX...XXX.XXXXXXXXXX.                        ",
"                        .XXXXXXXXXXXX...XXXXXXX.XXXXXXX....XXXXXX.XXXXXXXX.                         ",
"                         .XXXXXXXXXXX.XX....XXX.XXXXXX..XXXXXXXXX.XXXXXXX.                          ",
"                          .XXXXXXXXXX..XXXXX...........X.XXXXXXXXXXXXXXX.                           ",
"                           .XXXXXXXXXXXXXXXXXXX..XXXXXXXXXXXXXXXXXXXXXX.                            ",
"                            .XXXXXXXXXXXXXXXXXXXXXXXXXXXXXXXXXXXXXXXXX.                             ",
"                             ..XXXXXXXXXXXXXXXXXXXXXXXXXXXXXXXXXXXXX..                              ",
"                               .XXXXXXXXXXXXXXXXXXXXXXXXXXXXXXXXXXX.                                ",
"                                ..XXXXXXXXXXXXXXXXXXXXXXXXXXXXXXX..                                 ",
"                                  ..XXXXXXXXXXXXXXXXXXXXXXXXXXX..                                   ",
"                                    ...XXXXXXXXXXXXXXXXXXXXX...                                     ",
"                                       .....XXXXXXXXXXX.....                                        ",
"                                            ...........                                             ",
"                                                                                                    ",
"                                                                                                    ",
"                                                                                                    ",
"                                                                                                    ",
"                                                                                                    ",
"                                                                                                    ",
"                                                                                                    ",
"                                                                                                    ",
"                                                                                                    ",
"                                                                                                    ",
"                                                                                                    ",
"                                                                                                    ",
"                                                                                                    ",
"                                                                                                    ",
"                                                                                                    ",
"                                                                                                    ",
"                                                                                                    ",
"                                                                                                    ",
"                                                                                                    ",
"                                                                                                    ",
"                                                                                                    ",
"                                                                                                    ",
"                                                                                                    ",
"                                                                                                    ",
"                                                                                                    ",
"                                                                                                    ",
"                                                                                                    ",
"                                                                                                    ",
"                                                                                                    "
};
